<mxfile host="Electron" agent="Mozilla/5.0 (Windows NT 10.0; Win64; x64) AppleWebKit/537.36 (KHTML, like Gecko) draw.io/24.7.17 Chrome/128.0.6613.36 Electron/32.0.1 Safari/537.36" version="24.7.17">
  <diagram name="第 1 页" id="x8BklIuFlCDCuFzLZXhw">
    <mxGraphModel dx="1221" dy="823" grid="0" gridSize="10" guides="1" tooltips="1" connect="1" arrows="1" fold="1" page="1" pageScale="1" pageWidth="827" pageHeight="1169" math="0" shadow="0">
      <root>
        <mxCell id="0" />
        <mxCell id="1" parent="0" />
        <mxCell id="1yrq2BFhlnebwqS12OHi-1" value="Intelligent Cabin Architect" style="rounded=0;whiteSpace=wrap;align=left;verticalAlign=top;fontFamily=Nunito;fontSize=15;" vertex="1" parent="1">
          <mxGeometry x="110" y="190" width="890" height="480" as="geometry" />
        </mxCell>
        <mxCell id="1yrq2BFhlnebwqS12OHi-2" value="Multi Agent Framework" style="rounded=0;whiteSpace=wrap;html=1;verticalAlign=top;fontFamily=Nunito;fontSize=15;" vertex="1" parent="1">
          <mxGeometry x="120" y="220" width="870" height="210" as="geometry" />
        </mxCell>
        <mxCell id="1yrq2BFhlnebwqS12OHi-4" value="Inference Engineering" style="rounded=0;whiteSpace=wrap;html=1;verticalAlign=top;fontFamily=Nunito;fontSize=15;" vertex="1" parent="1">
          <mxGeometry x="120" y="450" width="280" height="200" as="geometry" />
        </mxCell>
        <mxCell id="1yrq2BFhlnebwqS12OHi-5" value="Reinforcement learning" style="rounded=0;whiteSpace=wrap;verticalAlign=top;fontFamily=Nunito;fontSize=15;" vertex="1" parent="1">
          <mxGeometry x="710" y="450" width="280" height="200" as="geometry" />
        </mxCell>
        <mxCell id="1yrq2BFhlnebwqS12OHi-6" value="Data Engineering" style="rounded=0;whiteSpace=wrap;html=1;verticalAlign=top;fontFamily=Nunito;fontSize=15;" vertex="1" parent="1">
          <mxGeometry x="414" y="450" width="280" height="200" as="geometry" />
        </mxCell>
      </root>
    </mxGraphModel>
  </diagram>
</mxfile>
